<?xml version="1.0" encoding="UTF-8"?>
<svg version="1.1" xmlns="http://www.w3.org/2000/svg" width="1080" height="1080">
<path d="M0 0 C44.88 0 89.76 0 136 0 C139.37790763 7.88178447 139.37790763 7.88178447 140.6484375 12.08203125 C141.06947754 13.46720947 141.06947754 13.46720947 141.49902344 14.88037109 C141.7880957 15.84797363 142.07716797 16.81557617 142.375 17.8125 C142.67954102 18.82135254 142.98408203 19.83020508 143.29785156 20.86962891 C145.40081604 27.87840485 147.416753 34.90851064 149.31396484 41.97583008 C150.25768325 45.46471562 151.28126502 48.90068332 152.44140625 52.32421875 C154.18841666 57.48247943 155.68637772 62.70334078 157.1875 67.9375 C159.56893719 76.17086426 162.01989316 84.37754256 164.5625 92.5625 C168.42261881 105.01515565 172.15571108 117.50468973 175.875 130 C176.17786926 131.01748322 176.48073853 132.03496643 176.79278564 133.08328247 C180.90744026 146.91281224 184.99333041 160.75059143 189.05209351 174.59661865 C191.81836152 184.03132176 194.6393346 193.44750171 197.52246094 202.84716797 C199.92802653 210.7088767 202.23638438 218.59760033 204.51635742 226.49658203 C206.59735199 233.68981742 208.78275151 240.84768827 211 248 C218.98448523 273.83250679 218.98448523 273.83250679 222.20458984 284.93603516 C223.73867642 290.19373304 225.39206304 295.40923054 227.0625 300.625 C229.20269365 307.3202224 231.10639775 314.03733583 232.8671875 320.84375 C234.54594681 327.15411456 236.51915384 333.38170358 238.45092773 339.61816406 C239.88826691 344.27441318 241.26845288 348.9326844 242.52734375 353.640625 C243.61677418 357.69642603 244.86151468 361.66007161 246.21875 365.6328125 C248.12349128 371.40417858 249.71838977 377.27631019 251.39453125 383.1171875 C252.68809475 387.59622235 253.99199385 392.056732 255.5 396.46875 C257.76675815 403.14275941 259.53104143 409.96689781 261.39453125 416.76171875 C263.29040741 423.61861005 265.3778204 430.36200635 267.72607422 437.07592773 C270.85168696 446.04236759 273.16183303 455.2807181 275.66601562 464.43457031 C279.04293132 476.80571096 279.04293132 476.80571096 283 489 C285.11245045 495.08077842 287.07897129 501.10689701 288.5625 507.375 C289.58316826 511.64834734 290.7892622 515.21016377 293 519 C295.21244842 513.2335121 297.20132246 507.46023903 298.85083008 501.50634766 C300.93926102 494.11916544 303.25749915 486.8213733 305.63671875 479.5234375 C306.07509345 478.1724746 306.51321308 476.82142891 306.95109558 475.4703064 C307.85395364 472.68536541 308.75800084 469.90081498 309.6630249 467.11657715 C311.74880829 460.69769056 313.82091845 454.27438944 315.89453125 447.8515625 C316.70653267 445.33796868 317.51854445 442.8243782 318.33056641 440.31079102 C325.50192849 418.10549986 332.64835021 395.89319668 339.6796875 373.64306641 C343.65679393 361.05984407 347.6955005 348.49734315 351.7578125 335.94140625 C353.44249391 330.73311061 355.112927 325.52049838 356.77416992 320.3046875 C360.9540914 307.18279553 365.22514254 294.09120578 369.5 281 C374.71911103 265.01642269 379.91297859 249.02620962 385 233 C386.12472018 229.45824438 387.24967916 225.91656482 388.375 222.375 C388.65714355 221.48659424 388.93928711 220.59818848 389.22998047 219.68286133 C391.46658212 212.650792 393.73308644 205.62858829 396.00402832 198.60754395 C400.8283725 183.69067553 405.57762377 168.75061162 410.30957031 153.80419922 C413.62646596 143.32787465 416.95615964 132.85592732 420.31152344 122.3918457 C422.80247917 114.62336186 425.27744774 106.84986335 427.74365234 99.07348633 C429.44601376 93.71273894 431.19113522 88.37016191 433.0078125 83.046875 C435.75209284 74.94836939 438.31169333 66.80192399 440.8125 58.625 C443.57793988 49.58890213 446.3790557 40.56568356 449.25 31.5625 C449.56686768 30.5636377 449.88373535 29.56477539 450.21020508 28.53564453 C452.05598224 22.7692255 454.0306624 17.0694154 456.14697266 11.39648438 C456.90868343 9.25654363 457.54477259 7.13210164 458.125 4.9375 C459 2 459 2 461 0 C463.38567543 -0.24609566 463.38567543 -0.24609566 466.44155884 -0.24050903 C467.59704727 -0.24325836 468.75253571 -0.24600769 469.94303894 -0.24884033 C471.85382988 -0.2380545 471.85382988 -0.2380545 473.80322266 -0.22705078 C475.15325411 -0.22648686 476.50328617 -0.22680286 477.85331726 -0.22793579 C481.52462276 -0.22851105 485.19579831 -0.21672892 488.86707354 -0.20278788 C492.70144529 -0.1903092 496.53581982 -0.18911228 500.37020874 -0.18673706 C507.63398585 -0.18051385 514.89770295 -0.1640917 522.1614536 -0.14403808 C530.42977438 -0.1217052 538.69809798 -0.11069223 546.96644139 -0.10064721 C563.97766234 -0.07972617 580.98882483 -0.0445339 598 0 C598.33 0.99 598.66 1.98 599 3 C594.75341258 5.20193422 590.63348189 7.15205705 586.125 8.75 C574.81482265 13.22187012 567.96183631 21.62810931 562.8125 32.3125 C558.78399943 42.18701287 557.56039439 51.64737081 557.63923645 62.24981689 C557.63667318 63.53005478 557.6341099 64.81029266 557.63146895 66.12932563 C557.62482039 69.64820747 557.63667792 73.16681084 557.65180314 76.68565726 C557.66484148 80.49325217 557.66036856 84.30083324 557.65809631 88.10844421 C557.65652847 94.69389777 557.66588625 101.27926168 557.68280983 107.86469269 C557.70726199 117.38593268 557.71501144 126.90712964 557.7187738 136.42839763 C557.72532857 151.87855914 557.74526319 167.32867296 557.77368164 182.77880859 C557.80124751 197.78108482 557.8224687 212.78334807 557.83520508 227.78564453 C557.83638733 229.17434895 557.83638733 229.17434895 557.83759347 230.59110799 C557.84150878 235.23590646 557.84529986 239.88070502 557.84902918 244.52550364 C557.88009471 283.01703581 557.93290385 321.50851475 558 360 C558.81653549 360.1314592 559.63307098 360.2629184 560.47434998 360.39836121 C561.54943314 360.57394058 562.6245163 360.74951996 563.73217773 360.93041992 C564.79621323 361.10312912 565.86024872 361.27583832 566.95652771 361.45378113 C593.91532417 366.29213745 620.33880507 383.23554601 638 404 C638 404.66 638 405.32 638 406 C638.99 406.33 639.98 406.66 641 407 C642.40698242 408.54370117 642.40698242 408.54370117 643.85546875 410.54296875 C644.39171875 411.2803125 644.92796875 412.01765625 645.48046875 412.77734375 C646.04378906 413.57269531 646.60710938 414.36804688 647.1875 415.1875 C647.76757812 415.99960937 648.34765625 416.81171875 648.9453125 417.6484375 C653.79767992 424.53253114 658.04974241 431.56366377 662 439 C662.44472656 439.77472656 662.88945313 440.54945313 663.34765625 441.34765625 C677.0690974 466.36391712 680.25399441 495.84187505 680.375 523.8125 C680.38664688 525.03676697 680.38664688 525.03676697 680.39852905 526.2857666 C680.5091144 541.03566582 679.38055817 555.93332553 674.375 569.9375 C674.12194092 570.66437012 673.86888184 571.39124023 673.6081543 572.14013672 C668.09667884 587.44670249 660.64247758 600.93879006 651 614 C650.08154297 615.28390625 650.08154297 615.28390625 649.14453125 616.59375 C646.37146407 620.41473717 643.38903278 623.69786549 640 627 C639.21625 627.969375 638.4325 628.93875 637.625 629.9375 C635.23073597 632.88662521 632.504133 635.22838076 629.55078125 637.60546875 C627.7459798 639.11259341 627.7459798 639.11259341 626 642 C621.43126387 641.73125082 619.23045103 639.75263889 616.0390625 636.765625 C615 635 615 635 615.29174805 632.67651367 C616.00755363 629.97145452 616.95463178 627.86132003 618.29296875 625.41015625 C618.75558105 624.55043213 619.21819336 623.69070801 619.69482422 622.80493164 C620.43369873 621.44742798 620.43369873 621.44742798 621.1875 620.0625 C640.13871803 584.53735844 652.01026448 544.9294362 641 505 C634.41975507 483.52740933 623.51595044 461.20396965 605.921875 446.64453125 C604.03358686 445.02873997 602.37993667 443.31735461 600.6875 441.5 C596.37085525 437.11468135 591.25045218 434.14446168 586 431 C585.16082031 430.47277344 584.32164062 429.94554687 583.45703125 429.40234375 C554.86121309 411.62656489 523.16621414 409.58590041 490.9375 416.375 C469.65764107 421.7500939 451.61091711 432.85588301 434.9375 446.75 C434.41325439 447.18546143 433.88900879 447.62092285 433.34887695 448.06958008 C430.71799456 450.31823752 428.41288643 452.63669629 426.25390625 455.328125 C425.13822266 456.65070313 425.13822266 456.65070313 424 458 C423.34 458 422.68 458 422 458 C421.74347656 458.56074219 421.48695313 459.12148438 421.22265625 459.69921875 C419.84618654 462.28944449 418.2131221 464.4772879 416.4375 466.8125 C409.3219268 476.50730647 402.95760606 486.59638255 399 498 C398.50158604 499.2922795 398.00162909 500.58396513 397.5 501.875 C396.99672502 503.24880468 396.49699094 504.62390952 396 506 C395.69191406 506.82371094 395.38382812 507.64742187 395.06640625 508.49609375 C392.82556884 514.78264539 391.20164157 521.10721161 389.8125 527.625 C389.64564697 528.40012939 389.47879395 529.17525879 389.30688477 529.97387695 C387.01575109 541.14447881 386.84132801 552.13472755 386.86962891 563.49536133 C386.87499502 566.06011852 386.86965452 568.6247012 386.86328125 571.18945312 C386.86394203 572.84635455 386.86522318 574.50325586 386.8671875 576.16015625 C386.86415115 577.2902285 386.86415115 577.2902285 386.86105347 578.44313049 C386.8925748 585.72138582 387.51653018 592.82080809 389.375 599.875 C389.64183594 600.89335938 389.90867187 601.91171875 390.18359375 602.9609375 C390.45300781 603.96382812 390.72242188 604.96671875 391 606 C391.23847656 606.92039062 391.47695313 607.84078125 391.72265625 608.7890625 C394.07528892 617.71106837 396.51765824 626.71474391 400.8828125 634.88671875 C401.73192271 636.49290274 402.53042347 638.12595881 403.3046875 639.76953125 C406.38414255 646.25303255 409.89314191 651.93060341 414.265625 657.625 C416 660 416 660 417.046875 662.125 C418.10550155 664.20754403 419.30693421 665.40332161 421 667 C422.08987572 668.26522701 423.17279639 669.53646675 424.25 670.8125 C427.08827728 674.08190801 430.05779594 676.89990724 433.3984375 679.64453125 C435 681 435 681 437.25 683.375 C448.57014302 694.18059107 462.61874577 701.22624522 477 707 C478.07507813 707.44472656 478.07507813 707.44472656 479.171875 707.8984375 C481.09742651 708.66372079 483.03570733 709.34040357 485 710 C485.88429688 710.31710937 486.76859375 710.63421875 487.6796875 710.9609375 C503.71898082 716.17664902 522.20493928 718.02168459 539 717 C539.83031738 716.95214355 540.66063477 716.90428711 541.51611328 716.85498047 C553.98041162 716.09212629 565.9618945 714.57346882 578.06640625 711.48925781 C579.88236313 711.02976569 581.70664658 710.60354449 583.53125 710.1796875 C588.97499653 708.89959859 593.90782168 707.35748996 599 705 C600.47795655 704.43432808 601.95726772 703.87218982 603.4375 703.3125 C619.09653832 697.03937994 633.70214072 688.67637999 646.6953125 677.8984375 C648.97492148 676.0206579 651.31846049 674.26282064 653.6875 672.5 C657.2897166 669.71445465 660.22872704 666.71394352 663.1015625 663.1875 C664.75926716 661.27738763 666.47047634 659.55794037 668.28515625 657.80078125 C672.22104939 653.89292746 675.53818927 649.65600379 678.8125 645.1875 C679.41852051 644.36072754 680.02454102 643.53395508 680.64892578 642.68212891 C686.53197413 634.50060171 691.42650309 625.96552202 696 617 C696.34724121 616.33919434 696.69448242 615.67838867 697.05224609 614.99755859 C707.64194329 594.74406701 713.96576866 572.40852486 718 550 C718.17892509 549.00910374 718.35785017 548.01820748 718.54219723 546.99728405 C722.58616843 523.57885178 722.5788072 500.33310748 722.52289867 476.63522184 C722.51372683 470.86651201 722.5278764 465.09784766 722.53881836 459.32914734 C722.55647485 448.07518068 722.55282326 436.82132155 722.5411678 425.56735092 C722.53209021 416.42009581 722.53092802 407.27287059 722.53526306 398.12561226 C722.53618246 396.16405756 722.53618246 396.16405756 722.53712043 394.16287549 C722.53839945 391.50553801 722.53969631 388.84820054 722.5410108 386.19086308 C722.55245308 362.06722415 722.54066002 337.94363935 722.51964041 313.82000966 C722.50062498 291.82911268 722.50239377 269.83830832 722.52148438 247.84741211 C722.54292002 223.07314717 722.55131607 198.29893405 722.53903532 173.52466112 C722.53776121 170.88294733 722.53650373 168.24123354 722.53526306 165.59951973 C722.53464596 164.30001035 722.53402886 163.00050097 722.53339306 161.66161252 C722.52994488 152.52119577 722.53575626 143.38081196 722.54518127 134.24040031 C722.5564086 123.10877196 722.55334413 111.97725641 722.5320583 100.84564095 C722.52156344 95.17098711 722.51740006 89.49652125 722.53065491 83.8218689 C722.54261454 78.62318273 722.53595748 73.42485805 722.5147447 68.22620446 C722.51029424 66.35070825 722.5125097 64.47518119 722.52224785 62.59970497 C722.60702232 44.91003012 719.49761997 30.31284977 707.01171875 16.99609375 C700.13776047 10.17552544 691.93304169 7.34557932 683 4 C683 2.68 683 1.36 683 0 C690.81495648 -0.1627413 698.62951052 -0.28684436 706.44573975 -0.3626852 C710.0759295 -0.39910066 713.70495368 -0.44842706 717.33447266 -0.52807617 C720.84239005 -0.60456823 724.34919217 -0.64607806 727.85787964 -0.6641407 C729.8366988 -0.68322437 731.81507377 -0.73780285 733.79321289 -0.79307556 C739.83732915 -0.79569351 743.96674584 -0.73014565 748.65136719 3.34033203 C749.78648389 4.54264933 750.90367596 5.76220744 752 7 C753.21984471 8.09582086 754.45245678 9.17777502 755.703125 10.23828125 C756.2909375 10.74810547 756.87875 11.25792969 757.484375 11.78320312 C758.35835937 12.54020508 758.35835937 12.54020508 759.25 13.3125 C760.1471875 14.09850586 760.1471875 14.09850586 761.0625 14.90039062 C763.90274525 17.35418658 766.48293221 19.5635738 770 21 C770.69867187 20.4225 771.39734375 19.845 772.1171875 19.25 C773.02726563 18.5075 773.93734375 17.765 774.875 17 C776.23238281 15.88625 776.23238281 15.88625 777.6171875 14.75 C780 13 780 13 782 13 C782.33 12.01 782.66 11.02 783 10 C783.639375 9.855625 784.27875 9.71125 784.9375 9.5625 C785.618125 9.376875 786.29875 9.19125 787 9 C787.28875 8.4225 787.5775 7.845 787.875 7.25 C789.5861655 3.827669 791.61868981 1.70636578 795 0 C799.42821264 -0.69705775 803.80040326 -0.58154453 808.2734375 -0.48828125 C810.19175888 -0.47766914 810.19175888 -0.47766914 812.14883423 -0.46684265 C815.53281413 -0.4436463 818.91507924 -0.39880807 822.29858398 -0.34332275 C825.75749976 -0.29197788 829.21659342 -0.26929641 832.67578125 -0.24414062 C839.45099144 -0.18907679 846.22539681 -0.10545116 853 0 C853.33 0.99 853.66 1.98 854 3 C849.87340877 5.10081008 845.77834397 7.10413762 841.5 8.875 C831.06485844 13.51085191 822.21863158 21.81858382 817.88671875 32.46875 C817.44779297 33.72171875 817.44779297 33.72171875 817 35 C816.4946576 36.16001589 815.9893152 37.32003178 815.4686594 38.51519966 C812.95839678 46.14415135 813.5851937 54.3480801 813.61473083 62.28805542 C813.61072145 64.16574195 813.60539378 66.04342605 813.59886509 67.9211055 C813.58472822 73.07061559 813.58914089 78.21996767 813.59657824 83.36948562 C813.6013206 88.92819399 813.58875176 94.48686611 813.57821655 100.04556274 C813.56223984 109.67906542 813.5569659 119.31252605 813.55874443 128.94604111 C813.56113075 142.9038401 813.54511992 156.86157212 813.52429188 170.8193536 C813.49075658 193.50440354 813.46907049 216.18944267 813.45629883 238.87451172 C813.45572183 239.89235394 813.45572183 239.89235394 813.45513317 240.93075863 C813.45201796 246.42712251 813.44892689 251.9234864 813.44587547 257.41985031 C813.43709491 273.20617134 813.42586884 288.99249012 813.41333008 304.77880859 C813.41253005 305.79198534 813.41253005 305.79198534 813.41171386 306.8256303 C813.3932878 330.0866134 813.36685521 353.3475809 813.33519894 376.60855019 C813.31671783 390.51508949 813.3057337 404.42159697 813.30467702 418.32814874 C813.3035669 427.87772479 813.29555073 437.42727911 813.28229337 446.97684596 C813.27493205 452.47279107 813.2707307 457.96868862 813.27541161 463.46463776 C813.31965857 521.75309204 813.31965857 521.75309204 808 545 C807.7628125 546.08539062 807.525625 547.17078125 807.28125 548.2890625 C806.55467016 551.53497896 805.78170059 554.76694708 805 558 C804.71382812 559.24265625 804.42765625 560.4853125 804.1328125 561.765625 C794.66072585 602.15188475 773.76495267 644.46880627 743 673 C742.01 673.33 741.02 673.66 740 674 C739.3241461 675.32870001 738.65904231 676.66288166 738 678 C718.33848011 698.49902885 689.00201172 716.46290962 661.9375 725.0625 C658.59593204 726.14545456 655.27860149 727.23899943 652 728.5 C642.98983358 731.90425179 634.11642133 734.54568006 624.640625 736.2890625 C621.00345451 736.94640521 621.00345451 736.94640521 617.5234375 737.98828125 C610.95430523 739.66868307 604.11168438 739.97143949 597.375 740.5625 C595.27907828 740.75077526 593.18334491 740.94087151 591.08779907 741.13328552 C589.19215567 741.30668992 587.29604014 741.47491021 585.39990234 741.64282227 C582.235022 741.9753097 579.13653587 742.47058297 576 743 C544.93095242 744.92602836 510.30066386 740.36769992 481 730 C480.0203125 729.66097656 479.040625 729.32195313 478.03125 728.97265625 C472.22510971 726.88495457 466.596762 724.59243954 461 722 C459.67067756 721.40471419 458.34123962 720.80968626 457.01171875 720.21484375 C448.72131643 716.46317142 441.28339532 712.50225347 434 707 C432.32918651 705.85206699 430.65830172 704.70423606 428.98608398 703.55834961 C412.88443188 692.40499944 399.48088063 678.5580299 389 662 C388.42765625 661.175 387.8553125 660.35 387.265625 659.5 C379.4736897 648.0622968 374.11347653 634.87849367 369.6875 621.8125 C369.46956787 621.1743335 369.25163574 620.53616699 369.02709961 619.87866211 C364.85831372 606.96225994 362.40211478 593.795548 360.98925781 580.32543945 C360.75022214 578.06460104 360.4894984 575.80699789 360.2265625 573.54882812 C358.68499311 559.76133483 358.2215444 545.87467922 359.8125 532.0625 C359.90233154 531.23951416 359.99216309 530.41652832 360.0847168 529.56860352 C363.63885058 498.21510541 371.66848629 468.69306127 389 442 C389.64324219 441.00871094 390.28648437 440.01742188 390.94921875 438.99609375 C398.85129695 427.2068173 408.13611914 415.20750441 419 406 C419.66 406 420.32 406 421 406 C421 405.34 421 404.68 421 404 C422.87109375 402.265625 422.87109375 402.265625 425.4375 400.25 C426.26121094 399.59515625 427.08492187 398.9403125 427.93359375 398.265625 C435.89855129 392.38068822 444.29215806 387.4430556 452.9375 382.625 C454.07251953 381.98433594 455.20753906 381.34367187 456.37695312 380.68359375 C457.45783203 380.07902344 458.53871094 379.47445313 459.65234375 378.8515625 C461.12175415 378.02906006 461.12175415 378.02906006 462.62084961 377.18994141 C465 376 465 376 467 376 C466.505 217.6 466.505 217.6 466 56 C463.63345456 62.24700732 463.63345456 62.24700732 461.53515625 68.55078125 C461.17405762 69.71407959 461.17405762 69.71407959 460.80566406 70.90087891 C460.43779785 72.09463135 460.43779785 72.09463135 460.0625 73.3125 C458.40845036 78.63319756 456.71929953 83.91041286 454.75 89.125 C453.27926107 93.03486562 452.31715046 96.86839904 451.4921875 100.95703125 C450.72683801 104.13383904 449.31006961 107.01304128 448 110 C447.52488673 111.49096131 447.07235964 112.98921868 446.63671875 114.4921875 C444.93657313 120.25568638 443.0971189 125.96971019 441.25 131.6875 C438.17924106 141.22406725 435.20478084 150.78492839 432.34667969 160.38745117 C430.75786003 165.68335582 428.98860727 170.84082453 427 176 C424.89431682 182.02917147 423.01217259 188.12999635 421.11547852 194.22729492 C418.99421719 201.04036035 416.82943935 207.83932327 414.66162109 214.63769531 C412.97255909 219.9367493 411.29384701 225.23885509 409.62695312 230.54492188 C407.65528201 236.81842087 405.65644279 243.07841627 403.5625 249.3125 C401.25528199 256.18288253 399.05135921 263.0833232 396.86083984 269.99169922 C390.28564731 290.72293559 383.58053234 311.41295125 376.90061951 332.11064148 C375.43208896 336.660886 373.96394059 341.21125364 372.49609375 345.76171875 C372.1869529 346.72007881 372.1869529 346.72007881 371.87156677 347.69779968 C370.83254848 350.91888082 369.79357876 354.13997762 368.75463867 357.36108398 C366.64723083 363.89466233 364.53910595 370.428008 362.4296875 376.9609375 C359.95041698 384.63975322 357.47407029 392.31950708 355 400 C354.47841309 401.61865967 354.47841309 401.61865967 353.94628906 403.27001953 C350.77878183 413.10783345 347.63070987 422.95101177 344.5625 432.8203125 C344.24805687 433.83167267 344.24805687 433.83167267 343.92726135 434.86346436 C343.61050697 435.88237762 343.61050697 435.88237762 343.28735352 436.921875 C338.95570241 450.85543828 334.49826908 464.73533128 329.82495117 478.55908203 C327.50113616 485.4349336 325.24078651 492.32661985 323.0625 499.25 C322.79872559 500.08644043 322.53495117 500.92288086 322.26318359 501.78466797 C320.86489836 506.22582714 319.48284174 510.67127908 318.125 515.125 C313.07174762 531.616786 307.85132218 548.08677413 302.171875 564.375 C300.13054433 570.28182917 298.58630491 576.29443799 297.0625 582.3515625 C296.18178018 585.37579894 295.09694478 588.0847547 293.81640625 590.95068359 C292.00288667 595.50292144 290.81958564 600.28637093 289.5 605 C286.21026385 616.7511099 286.21026385 616.7511099 284.4453125 620.73046875 C282.77005586 624.52017093 281.56489689 628.34984955 280.375 632.3125 C278.11641876 639.76716247 278.11641876 639.76716247 277 642 C262.81 642 248.62 642 234 642 C232.73506811 638.20520433 231.52150375 634.45691798 230.4140625 630.62109375 C230.12273437 629.61626953 229.83140625 628.61144531 229.53125 627.57617188 C229.2321875 626.54041016 228.933125 625.50464844 228.625 624.4375 C225.52536736 613.70536486 222.26689948 603.02916826 218.921875 592.37109375 C214.69858373 578.90409909 210.64525124 565.41298775 206.81176758 551.82885742 C204.73883633 544.50851103 202.54517955 537.24329543 200.21362305 530.00170898 C198.24046679 523.84447854 196.41862137 517.64919963 194.625 511.4375 C191.8311322 501.76461971 188.91916846 492.13304148 185.92822266 482.51928711 C183.19248408 473.70627013 180.58998812 464.85663707 178 456 C177.19055767 453.23684618 176.38047171 450.47388121 175.5703125 447.7109375 C175.37146957 447.03271942 175.17262665 446.35450134 174.96775818 445.6557312 C169.83526473 428.15068254 169.83526473 428.15068254 164.5625 410.6875 C161.61875843 401.07658632 158.73791619 391.44773024 155.875 381.8125 C155.64534546 381.03976746 155.41569092 380.26703491 155.17907715 379.47088623 C152.33575542 369.90063928 149.50497523 360.32673718 146.68359375 350.75 C145.56006169 346.9374511 144.43631637 343.1249651 143.3125 339.3125 C143.03531128 338.37180664 142.75812256 337.43111328 142.47253418 336.46191406 C138.95861784 324.54251207 135.37836124 312.64905091 131.68164062 300.78491211 C129.10678391 292.47107469 126.75688264 284.10165538 124.4387207 275.71313477 C122.13843237 267.41255661 119.62605651 259.20294682 117 251 C112.86508287 237.86355546 109.08611035 224.62108088 105.24365234 211.39697266 C104.58079581 209.11831672 103.91570936 206.84032382 103.25 204.5625 C102.88390625 203.30566406 102.5178125 202.04882812 102.140625 200.75390625 C101.31401778 198.03346263 100.4513425 195.34738754 99.5390625 192.65625 C97.90299064 187.79411366 96.50648336 182.87695899 95.125 177.9375 C93.16465201 171.00442887 91.1366928 164.10565334 88.96533203 157.2355957 C84.65780521 143.60644463 80.47795779 129.94349453 76.70532227 116.15600586 C74.94182597 109.72645504 73.00021075 103.35985379 71 97 C68.50500606 89.05181255 66.14747672 81.07466001 63.8671875 73.0625 C63.59060303 72.09248047 63.31401855 71.12246094 63.02905273 70.12304688 C62.35217222 67.74884828 61.67583479 65.37449644 61 63 C60.94864385 113.86409835 60.90088213 164.72819856 60.87297058 215.59231567 C60.87255641 216.34514469 60.87214224 217.0979737 60.87171552 217.87361572 C60.86273675 234.23469726 60.85442621 250.59577908 60.84680401 266.95686131 C60.84306201 274.98035552 60.83917235 283.00384965 60.83520508 291.02734375 C60.83461666 292.22499363 60.83461666 292.22499363 60.83401636 293.44683845 C60.82123278 319.32541922 60.79869919 345.20398033 60.77110834 371.08254919 C60.74280618 397.67658609 60.72434265 424.27061211 60.71825503 450.86466381 C60.71739057 454.62106054 60.71641366 458.37745723 60.71536827 462.13385391 C60.715166 462.87316519 60.71496373 463.61247647 60.71475533 464.37419112 C60.71121046 476.27409604 60.69729703 488.17396733 60.6795039 500.07385854 C60.66183627 512.03785412 60.65509755 524.00181636 60.65949587 535.96582453 C60.66142029 542.44795503 60.65843789 548.92998682 60.64238358 555.41209984 C60.62779329 561.3463651 60.62704215 567.28046519 60.63730332 573.21473803 C60.63857169 575.36160762 60.6347589 577.50848749 60.62535045 579.65533684 C60.61329845 582.57516869 60.61980835 585.49440551 60.63085651 588.41422844 C60.62297547 589.24628311 60.61509443 590.07833779 60.60697457 590.93560624 C60.72109761 604.29733224 66.5653454 615.10333462 75.5390625 624.703125 C85.19253792 633.71303539 96.2756592 636.35126682 109 638 C109.33 639.32 109.66 640.64 110 642 C70.07 642 30.14 642 -11 642 C-10.67 640.68 -10.34 639.36 -10 638 C-9.20078125 637.91363281 -8.4015625 637.82726562 -7.578125 637.73828125 C7.67378056 635.78703981 19.48714032 630.0260678 29.4296875 618.1875 C35.00910791 610.41517306 37.14992694 603.31579045 37.13422108 593.85059261 C37.13774942 592.42153012 37.13774942 592.42153012 37.14134905 590.96359769 C37.14805655 587.74068941 37.1475803 584.5178213 37.14717102 581.29490662 C37.15046856 578.97305634 37.15419389 576.65120665 37.1583125 574.32935768 C37.16729849 568.59769579 37.17156215 562.86604371 37.17383147 557.13437554 C37.17679108 550.27136096 37.18548711 543.40835666 37.19424575 536.54534747 C37.21510163 519.9550472 37.22556196 503.36474514 37.23437535 486.77443481 C37.23858045 478.92728247 37.24380264 471.0801309 37.24905988 463.23297921 C37.26695155 436.37609525 37.28194775 409.51921107 37.28938007 382.66232204 C37.28985483 380.97584552 37.29033072 379.28936899 37.29080774 377.60289246 C37.29104411 376.76654298 37.29128049 375.93019351 37.29152403 375.0685001 C37.29272524 370.83106712 37.29394068 366.59363415 37.29516602 362.35620117 C37.29540617 361.51526614 37.29564632 360.67433111 37.29589374 359.8079132 C37.30378666 332.54281879 37.32721758 305.27776789 37.35972196 278.01269248 C37.39401708 249.19294697 37.41373095 220.37322691 37.41702431 191.55346066 C37.41744186 188.38984333 37.41792142 185.22622603 37.41844749 182.06260872 C37.41857069 181.28362558 37.41869388 180.50464244 37.4188208 179.70205375 C37.4211533 167.16351129 37.43681609 154.62501933 37.45728934 142.08649488 C37.47754182 129.48321809 37.48302739 116.88000198 37.47351871 104.27671193 C37.46876067 97.44822115 37.47039859 90.61988002 37.49028015 83.79141235 C37.50784367 77.54080308 37.50696927 71.29047834 37.49138286 65.03986634 C37.48899644 62.77801303 37.4933836 60.51614038 37.50521151 58.25431674 C37.52029645 55.17929712 37.51068075 52.10529009 37.49498463 49.03029537 C37.50520683 48.15257222 37.51542904 47.27484907 37.52596101 46.37052825 C37.42796355 37.57125916 34.32310305 30.14608209 29.0625 23.125 C28.08990234 21.79855469 28.08990234 21.79855469 27.09765625 20.4453125 C19.65363294 11.76754976 9.5056344 7.76345135 -1 4 C-0.67 2.68 -0.34 1.36 0 0 Z " fill="#255AE4" transform="translate(103,201)"/>
<path d="M0 0 C2.3009926 -0.01694818 4.60196899 -0.03624124 6.90292358 -0.05773926 C11.70591838 -0.09035079 16.50706666 -0.08527483 21.31005859 -0.0546875 C27.4038463 -0.02020431 33.4907107 -0.09428892 39.58349037 -0.19921112 C44.33202661 -0.26605659 49.07895577 -0.26646169 53.82786179 -0.24891663 C56.07057386 -0.24962662 58.31340264 -0.27159308 60.55565262 -0.31712341 C77.51416874 -0.6157539 87.9333923 3.53645221 101.49630356 13.63835144 C105.75700947 16.72437305 110.23779125 19.45440397 114.7109375 22.21875 C116.25737942 23.19132795 117.80310897 24.16504098 119.34765625 25.140625 C119.98791748 25.5437793 120.62817871 25.94693359 121.2878418 26.36230469 C122.87972874 27.37713542 124.45264962 28.42155808 126.0234375 29.46875 C125.95873472 32.16635811 125.5290924 33.92688591 123.66650391 35.92285156 C121.76627963 37.5434282 119.8200224 39.07693808 117.8359375 40.59375 C117.11341797 41.16287109 116.39089844 41.73199219 115.64648438 42.31835938 C113.44771187 44.04692987 111.23648156 45.75851036 109.0234375 47.46875 C107.24834177 48.85860035 105.47648339 50.2524899 103.70483398 51.64672852 C102.57933191 52.53167025 101.45252876 53.41495961 100.32446289 54.29663086 C93.73497749 59.45187372 87.26577067 64.75464458 80.78027344 70.03955078 C75.84617867 74.0534739 70.87636555 78.02163476 65.8671875 81.94140625 C64.71089956 82.84630569 63.5546507 83.75125506 62.3984375 84.65625 C61.81481445 85.11298096 61.23119141 85.56971191 60.62988281 86.0402832 C55.26587909 90.25144587 49.9745635 94.54958234 44.70458984 98.87768555 C42.81997269 100.41966714 40.92266409 101.94481678 39.0234375 103.46875 C38.33733398 104.0364209 37.65123047 104.6040918 36.94433594 105.18896484 C36.25629883 105.73891113 35.56826172 106.28885742 34.859375 106.85546875 C34.24368652 107.35651123 33.62799805 107.85755371 32.99365234 108.3737793 C30.43954957 109.79325277 28.90832187 109.85981585 26.0234375 109.46875 C24.03808594 108.29467773 24.03808594 108.29467773 22.1328125 106.65234375 C21.42825928 106.05671631 20.72370605 105.46108887 19.99780273 104.84741211 C19.26376221 104.20682861 18.52972168 103.56624512 17.7734375 102.90625 C16.23894771 101.60338131 14.70379946 100.30128773 13.16796875 99 C12.44174316 98.37867188 11.71551758 97.75734375 10.96728516 97.1171875 C8.84413168 95.31669362 6.67597031 93.59225556 4.4609375 91.90625 C0.35258829 88.75757309 -3.65405148 85.49094158 -7.6640625 82.21875 C-12.70788518 78.10371308 -17.77926611 74.0321586 -22.9140625 70.03125 C-28.9129552 65.35330126 -34.78305016 60.52958894 -40.64013672 55.67578125 C-45.78357562 51.42334098 -51.00334578 47.28252632 -56.27001953 43.18432617 C-60.64653751 39.76480851 -64.86913847 36.20625074 -68.9765625 32.46875 C-68.8984375 30.734375 -68.8984375 30.734375 -67.9765625 28.46875 C-65.74152874 26.87912706 -63.61067458 25.54312675 -61.2265625 24.21875 C-59.84462704 23.42130904 -58.46312355 22.62311909 -57.08203125 21.82421875 C-56.38770996 21.4276709 -55.69338867 21.03112305 -54.97802734 20.62255859 C-52.13032862 18.98091134 -49.33435204 17.26033124 -46.5390625 15.53125 C-45.53459076 14.92768677 -44.53011902 14.32412354 -43.49520874 13.70227051 C-41.10810377 12.23342426 -38.88781767 10.65961961 -36.67861938 8.93615723 C-25.01716231 0.20522344 -14.19196587 -0.0702409 0 0 Z M-46.9765625 34.46875 C-43.46144775 37.98386475 -39.94253879 41.41686187 -36.2890625 44.78125 C-35.33644531 45.66425781 -34.38382813 46.54726562 -33.40234375 47.45703125 C-31.24521758 49.68153459 -31.24521758 49.68153459 -28.9765625 49.46875 C-28.9765625 50.12875 -28.9765625 50.78875 -28.9765625 51.46875 C-27.27753227 52.98615976 -25.51583527 54.433878 -23.7265625 55.84375 C-20.27802182 58.57156393 -17.02150181 61.29331329 -13.9765625 64.46875 C-13.3165625 64.13875 -12.6565625 63.80875 -11.9765625 63.46875 C-12.5540625 62.69789063 -13.1315625 61.92703125 -13.7265625 61.1328125 C-14.4690625 60.12992188 -15.2115625 59.12703125 -15.9765625 58.09375 C-17.0903125 56.59714844 -17.0903125 56.59714844 -18.2265625 55.0703125 C-19.9765625 52.46875 -19.9765625 52.46875 -19.9765625 50.46875 C-16.26961357 51.02033102 -14.87313879 52.35101654 -12.5390625 55.21875 C-9.84207345 58.49768796 -6.98343912 61.47031966 -3.9765625 64.46875 C-2.68916347 65.8313744 -1.40706055 67.19901272 -0.12890625 68.5703125 C0.55880859 69.30765625 1.24652344 70.045 1.95507812 70.8046875 C3.38136177 72.33686388 4.80582849 73.87073353 6.22851562 75.40625 C6.91494141 76.14101562 7.60136719 76.87578125 8.30859375 77.6328125 C8.92613525 78.29748535 9.54367676 78.9621582 10.17993164 79.64697266 C12.01608148 81.46148068 13.92374748 82.97191257 16.0234375 84.46875 C14.08009807 78.42345408 11.91943469 72.51472482 9.51953125 66.63671875 C9.19557877 65.83768631 8.87162628 65.03865387 8.53785706 64.21540833 C7.85933421 62.54353614 7.17946459 60.87220996 6.49829102 59.20141602 C5.45705012 56.64671223 4.42059379 54.09010568 3.38476562 51.53320312 C2.72163358 49.90092812 2.05823168 48.26876272 1.39453125 46.63671875 C1.08615829 45.87626755 0.77778534 45.11581635 0.46006775 44.33232117 C0.02435204 43.26519646 0.02435204 43.26519646 -0.42016602 42.17651367 C-0.67314957 41.55524094 -0.92613312 40.9339682 -1.18678284 40.29386902 C-2.0417852 38.31802544 -3.01375547 36.39436406 -3.9765625 34.46875 C-18.1665625 34.46875 -32.3565625 34.46875 -46.9765625 34.46875 Z M62.0234375 34.46875 C60.3734375 38.75875 58.7234375 43.04875 57.0234375 47.46875 C56.02096552 49.872324 55.00431254 52.2701472 53.9609375 54.65625 C46.53220732 69.60792391 46.53220732 69.60792391 43.0234375 85.46875 C44.39906604 84.17909824 45.73110143 82.84185707 47.0234375 81.46875 C47.0234375 80.80875 47.0234375 80.14875 47.0234375 79.46875 C47.920625 79.07623047 47.920625 79.07623047 48.8359375 78.67578125 C51.16891522 77.38847747 52.34023033 76.20327539 54.0234375 74.15625 C57.77524811 69.71417121 61.70282469 65.46063409 65.671875 61.21362305 C68.12092246 58.57968861 70.48683656 55.92439665 72.74609375 53.125 C75.0234375 50.46875 75.0234375 50.46875 77.3359375 49.59375 C78.17125 49.531875 78.17125 49.531875 79.0234375 49.46875 C77.43300371 54.55813811 74.2787424 58.34331643 71.0234375 62.46875 C71.3534375 63.12875 71.6834375 63.78875 72.0234375 64.46875 C73.69587152 63.18455959 75.36125197 61.89117815 77.0234375 60.59375 C77.9515625 59.87445313 78.8796875 59.15515625 79.8359375 58.4140625 C80.5578125 57.77210938 81.2796875 57.13015625 82.0234375 56.46875 C82.0234375 55.80875 82.0234375 55.14875 82.0234375 54.46875 C82.61133057 54.19780518 83.19922363 53.92686035 83.80493164 53.64770508 C85.99825634 52.48213173 87.65277163 51.23447452 89.51953125 49.60546875 C90.16083984 49.04794922 90.80214844 48.49042969 91.46289062 47.91601562 C92.12224609 47.33529297 92.78160156 46.75457031 93.4609375 46.15625 C94.11642578 45.58712891 94.77191406 45.01800781 95.44726562 44.43164062 C99.12659123 41.21730502 102.55489387 37.93729363 106.0234375 34.46875 C91.5034375 34.46875 76.9834375 34.46875 62.0234375 34.46875 Z M28.0234375 87.46875 C27.6934375 90.43875 27.3634375 93.40875 27.0234375 96.46875 C28.0134375 96.46875 29.0034375 96.46875 30.0234375 96.46875 C29.6934375 93.49875 29.3634375 90.52875 29.0234375 87.46875 C28.6934375 87.46875 28.3634375 87.46875 28.0234375 87.46875 Z " fill="#2556DD" transform="translate(843.9765625,106.53125)"/>
<path d="M0 0 C1.13115234 0.39058594 1.13115234 0.39058594 2.28515625 0.7890625 C2.83042969 0.98242188 3.37570312 1.17578125 3.9375 1.375 C3.6075 2.365 3.2775 3.355 2.9375 4.375 C2.01453125 4.35179687 1.0915625 4.32859375 0.140625 4.3046875 C-7.86103861 4.19399255 -15.71999115 4.47329316 -23.6875 5.25 C-24.94771973 5.36770752 -24.94771973 5.36770752 -26.23339844 5.48779297 C-30.77505304 5.96312484 -34.75694095 6.77206459 -39.0625 8.375 C-40.62431911 8.79421168 -42.18679744 9.21097691 -43.75 9.625 C-51.48654036 11.91557691 -58.19850735 16.23442275 -65.0625 20.375 C-62.93679688 19.89896226 -60.81195573 19.41907402 -58.6875 18.9375 C-57.50414062 18.67066406 -56.32078125 18.40382813 -55.1015625 18.12890625 C-52.16755419 17.51865305 -52.16755419 17.51865305 -50.0625 16.375 C-47.3901379 16.24084528 -44.73999512 16.33181459 -42.0625 16.375 C-41.5675 17.86 -41.5675 17.86 -41.0625 19.375 C-44.26435776 22.12055436 -47.13318556 23.11774715 -51.1875 24.1875 C-58.21430701 26.23929596 -64.82157903 29.13407903 -70.0625 34.375 C-69.54695557 34.17076416 -69.03141113 33.96652832 -68.50024414 33.75610352 C-62.17200278 31.4286108 -56.20066631 30.72882655 -49.5 30.3125 C-42.77229563 29.8698302 -36.55234546 29.24307918 -30.0625 27.375 C-29.01964844 27.07980469 -27.97679687 26.78460937 -26.90234375 26.48046875 C-22.19767598 24.99245135 -18.02122599 23.6302264 -14.0625 20.625 C-11.0625 18.375 -11.0625 18.375 -7.0625 18.375 C-8.52355375 26.55690099 -11.94606982 32.33444875 -18.75 37.25 C-19.843125 37.95125 -20.93625 38.6525 -22.0625 39.375 C-25.655725 41.77048333 -25.58635962 43.12505631 -26.4765625 47.16015625 C-27.45649054 50.86428424 -29.16440096 54.06498168 -31.0625 57.375 C-31.39894531 57.98472656 -31.73539063 58.59445312 -32.08203125 59.22265625 C-36.77405031 66.76636181 -45.13717444 70.75272455 -53.5390625 72.8984375 C-62.05307596 74.50634716 -69.65081785 73.01682795 -78 71.125 C-79.38699097 70.81852539 -79.38699097 70.81852539 -80.80200195 70.50585938 C-89.29461794 68.4440232 -89.29461794 68.4440232 -92.0625 64.375 C-92.0625 63.385 -92.0625 62.395 -92.0625 61.375 C-92.7225 61.375 -93.3825 61.375 -94.0625 61.375 C-94.85137967 46.53237516 -90.91812733 32.71428388 -80.95703125 21.4609375 C-77.24407834 17.41949278 -73.42721843 13.72635097 -69.0625 10.375 C-68.03125 9.570625 -67 8.76625 -65.9375 7.9375 C-61.29593798 4.68341566 -56.3205397 2.45391685 -51.0625 0.375 C-50.06863281 -0.02203125 -49.07476563 -0.4190625 -48.05078125 -0.828125 C-32.85380753 -6.03432589 -15.08923283 -5.26925591 0 0 Z M-39.75 44.3125 C-40.74386719 44.50714844 -41.73773437 44.70179688 -42.76171875 44.90234375 C-43.90060547 45.13630859 -43.90060547 45.13630859 -45.0625 45.375 C-45.05089844 46.03886719 -45.03929687 46.70273437 -45.02734375 47.38671875 C-44.93771968 56.15707381 -44.93771968 56.15707381 -46.0625 60.375 C-38.34838699 56.94650533 -35.03595153 51.52994366 -31.0625 44.375 C-34.53762718 43.21662427 -36.19920286 43.60234057 -39.75 44.3125 Z M-77.0625 53.375 C-78.7699998 54.65562485 -80.43623596 55.99267557 -82.0625 57.375 C-82.0625 58.035 -82.0625 58.695 -82.0625 59.375 C-82.7225 59.375 -83.3825 59.375 -84.0625 59.375 C-84.7225 60.695 -85.3825 62.015 -86.0625 63.375 C-81.43275009 65.14901632 -77.10205157 65.77141621 -72.1875 66 C-71.15496094 66.05800781 -71.15496094 66.05800781 -70.1015625 66.1171875 C-68.42226754 66.21048166 -66.74242233 66.29378238 -65.0625 66.375 C-66.0525 65.715 -67.0425 65.055 -68.0625 64.375 C-68.578125 63.83875 -69.09375 63.3025 -69.625 62.75 C-70.97184248 61.14459245 -70.97184248 61.14459245 -73.0625 61.375 C-73.35125 60.42625 -73.64 59.4775 -73.9375 58.5 C-74.83075109 55.32288422 -74.83075109 55.32288422 -77.0625 53.375 Z " fill="#214FD8" transform="translate(724.0625,705.625)"/>
<path d="M0 0 C18.60982463 0.24419821 33.75117871 7.17647693 47.70629883 19.38720703 C48.68083008 20.23605469 48.68083008 20.23605469 49.67504883 21.10205078 C54.4619649 25.56354054 57.63307287 30.64277595 60.70629883 36.38720703 C61.08786133 37.06138672 61.46942383 37.73556641 61.86254883 38.43017578 C64.44864055 43.49460539 65.51191532 48.71009667 66.51879883 54.26220703 C66.65503662 55.01252197 66.79127441 55.76283691 66.93164062 56.53588867 C67.49126154 59.91851173 67.806221 62.08744051 66.70629883 65.38720703 C66.04629883 65.38720703 65.38629883 65.38720703 64.70629883 65.38720703 C64.66504883 66.15033203 64.62379883 66.91345703 64.58129883 67.69970703 C63.70629883 70.38720703 63.70629883 70.38720703 61.19848633 71.91845703 C47.81982183 77.54527789 33.66569397 79.32373348 19.83129883 74.72314453 C9.29627671 70.21942258 2.91603499 61.78964388 -1.29370117 51.38720703 C-1.41745117 50.10845703 -1.54120117 48.82970703 -1.66870117 47.51220703 C-1.98111845 44.04353225 -1.98111845 44.04353225 -5.54370117 42.19970703 C-6.79001504 41.58797253 -8.03986853 40.98337905 -9.29370117 40.38720703 C-14.50300678 37.08374494 -17.8936301 32.01744894 -20.29370117 26.38720703 C-19.95776367 24.07470703 -19.95776367 24.07470703 -19.29370117 22.38720703 C-16.14824483 23.01357496 -14.91254961 23.66163615 -12.16870117 25.63720703 C-1.23971967 32.56827067 12.38243497 33.81099833 24.97485352 34.71557617 C31.48376005 35.19834137 37.5317266 36.17145145 43.70629883 38.38720703 C36.16915356 33.66665676 28.6763542 29.82307588 20.33129883 26.76220703 C16.70629883 25.38720703 16.70629883 25.38720703 13.70629883 23.38720703 C14.20129883 21.90220703 14.20129883 21.90220703 14.70629883 20.38720703 C20.20848043 20.15584066 24.84483661 20.95217243 30.14379883 22.38720703 C31.24111328 22.67337891 31.24111328 22.67337891 32.3605957 22.96533203 C34.14449548 23.43171106 35.92569728 23.90838981 37.70629883 24.38720703 C28.77599849 18.63783226 19.4749675 13.75836242 8.93676758 11.84423828 C6.70629883 11.38720703 6.70629883 11.38720703 3.59301758 10.37548828 C-1.09764667 9.0115807 -5.81226775 8.92871332 -10.66870117 8.76220703 C-11.56331055 8.72353516 -12.45791992 8.68486328 -13.37963867 8.64501953 C-19.02133067 8.41541579 -24.6476932 8.35271004 -30.29370117 8.38720703 C-30.29370117 7.06720703 -30.29370117 5.74720703 -30.29370117 4.38720703 C-29.22249023 4.18224609 -28.1512793 3.97728516 -27.04760742 3.76611328 C-25.65043266 3.49417994 -24.25329936 3.22203351 -22.85620117 2.94970703 C-22.14915039 2.815 -21.44209961 2.68029297 -20.71362305 2.54150391 C-13.45458315 1.11748173 -7.7837376 0.02884789 0 0 Z M3.70629883 47.38720703 C3.97442383 47.92345703 4.24254883 48.45970703 4.51879883 49.01220703 C5.70629883 51.38720703 5.70629883 51.38720703 6.76879883 54.13720703 C9.56584187 58.82902116 13.52595352 61.93425933 17.70629883 65.38720703 C18.36629883 65.05720703 19.02629883 64.72720703 19.70629883 64.38720703 C19.21516602 63.57509766 19.21516602 63.57509766 18.71411133 62.74658203 C17.48965116 59.88001636 17.50737737 57.74190833 17.58129883 54.63720703 C17.5993457 53.65236328 17.61739258 52.66751953 17.63598633 51.65283203 C17.65918945 50.90517578 17.68239258 50.15751953 17.70629883 49.38720703 C16.12399823 49.04900538 14.54040508 48.71684764 12.95629883 48.38720703 C12.07458008 48.20158203 11.19286133 48.01595703 10.28442383 47.82470703 C7.48485917 47.27567029 7.48485917 47.27567029 3.70629883 47.38720703 Z M48.70629883 57.38720703 C48.31442383 58.27408203 47.92254883 59.16095703 47.51879883 60.07470703 C45.02016917 64.64116813 42.01408261 67.51535118 37.70629883 70.38720703 C40.26966136 70.27274431 42.83143327 70.14601202 45.39379883 70.01220703 C46.47564453 69.96580078 46.47564453 69.96580078 47.5793457 69.91845703 C51.67840277 69.69385116 54.94998342 69.20979794 58.70629883 67.38720703 C57.80003099 66.08822313 56.88080346 64.79827536 55.95629883 63.51220703 C55.44583008 62.79291016 54.93536133 62.07361328 54.40942383 61.33251953 C52.63126336 59.30150138 51.17928276 58.40865691 48.70629883 57.38720703 Z " fill="#2251DA" transform="translate(547.293701171875,701.61279296875)"/>
<path d="M0 0 C0.86625 0.5775 1.7325 1.155 2.625 1.75 C3.49125 2.245 4.3575 2.74 5.25 3.25 C9.35242587 7.56834302 11.70692 13.24382388 11.56640625 19.2578125 C10.30525322 25.84259381 7.44057725 30.73207331 1.875 34.5625 C-2.21123451 36.95893829 -5.67817069 37.49838414 -10.375 37.75 C-10.375 38.45125 -10.375 39.1525 -10.375 39.875 C-11.72788283 43.76453812 -13.94798337 44.93471245 -17.2890625 47.19140625 C-19.31435555 48.70468701 -20.45083122 50.11278907 -21.9375 52.125 C-24.56979125 54.89621773 -27.14328416 55.21054987 -30.90014648 55.40283203 C-39.46736102 55.54861327 -39.46736102 55.54861327 -42.9765625 52.4609375 C-44.16378906 51.11902344 -44.16378906 51.11902344 -45.375 49.75 C-48.25361824 47.66387585 -51.18738328 45.68757787 -54.14453125 43.71484375 C-54.88058594 43.06644531 -55.61664062 42.41804687 -56.375 41.75 C-56.375 40.43 -56.375 39.11 -56.375 37.75 C-46.78466264 33.80103756 -40.64450297 33.28292815 -30.375 34.75 C-30.045 34.42 -29.715 34.09 -29.375 33.75 C-27.04682036 33.38239269 -24.7131615 33.04758419 -22.375 32.75 C-23.695 31.43 -25.015 30.11 -26.375 28.75 C-27.24125 29.28625 -28.1075 29.8225 -29 30.375 C-32.375 31.75 -32.375 31.75 -35.4375 31.25 C-38.375 29.75 -38.375 29.75 -40.8125 27.25 C-43.87030413 24.26677646 -46.32101339 23.87610739 -50.375 22.75 C-53.4720373 19.85943185 -54.11433282 16.92067493 -54.375 12.75 C-53.25481101 9.38943304 -52.42965901 8.78643934 -49.375 6.75 C-48.055 6.75 -46.735 6.75 -45.375 6.75 C-46.035 10.05 -46.695 13.35 -47.375 16.75 C-45.951875 17.018125 -44.52875 17.28625 -43.0625 17.5625 C-39.56774553 18.220932 -37.59618942 18.89623883 -35.375 21.75 C-35.375 22.41 -35.375 23.07 -35.375 23.75 C-34.055 23.75 -32.735 23.75 -31.375 23.75 C-31.19324219 23.193125 -31.01148438 22.63625 -30.82421875 22.0625 C-30.29618391 20.45944038 -29.75909075 18.85934704 -29.21484375 17.26171875 C-28.69663639 15.7119172 -28.20396131 14.15297815 -27.75390625 12.58203125 C-25.79458127 6.29028583 -22.03760823 2.97183066 -16.48828125 -0.39453125 C-11.30382199 -2.49323103 -5.13385613 -1.9014282 0 0 Z M-16.375 5.75 C-16.065625 6.36875 -15.75625 6.9875 -15.4375 7.625 C-13.57348596 11.35302808 -12.87340837 13.48647116 -13.375 17.75 C-15.83643568 20.6771127 -18.19624178 22.63082786 -21.375 24.75 C-18.32342707 29.26632793 -15.64900679 31.28019483 -10.375 32.75 C-5.50460255 32.55785739 -2.23451475 31.44492682 1.5625 28.375 C5.26936548 23.65717121 6.15349904 20.88058883 5.625 14.75 C3.88337187 10.07510344 1.83373103 7.42828338 -2.375 4.75 C-8.30200579 2.22553457 -10.94132058 2.86682316 -16.375 5.75 Z M-21.375 10.75 C-21.705 13.06 -22.035 15.37 -22.375 17.75 C-21.055 17.09 -19.735 16.43 -18.375 15.75 C-18.705 14.1 -19.035 12.45 -19.375 10.75 C-20.035 10.75 -20.695 10.75 -21.375 10.75 Z " fill="#1138C6" transform="translate(655.375,784.25)"/>
<path d="M0 0 C1.32 0 2.64 0 4 0 C4.36351562 0.68964844 4.72703125 1.37929688 5.1015625 2.08984375 C8.04129664 7.58488526 11.10356215 12.83998304 14.703125 17.9296875 C18.88180903 24.60047827 18.67819681 31.33115917 18 39 C16.34980524 45.53811343 11.68592835 50.53448893 6 54 C3.03794665 54.99883194 0.96205335 54.99883194 -2 54 C-9.00927831 49.72792162 -12.49575816 43.83506304 -14.875 36.1875 C-15.24909741 26.64801611 -12.24635686 19.77285796 -7 12 C-6.07783365 10.54513811 -5.16073705 9.08704375 -4.25 7.625 C-3.66992188 6.71621094 -3.66992188 6.71621094 -3.078125 5.7890625 C-1.94264038 3.90481628 -0.95901773 1.97906386 0 0 Z M1 17 C-3.78776758 24.57493228 -5.11741699 31.08443891 -4 40 C-2.81978236 43.54015472 -2.81978236 43.54015472 -1 46 C-0.34 46.99 0.32 47.98 1 49 C1.66 49 2.32 49 3 49 C8.07943336 41.97949746 9.34254034 35.5716037 8 27 C6.67368586 23.42352531 5.03601951 20.22127372 3 17 C2.34 17 1.68 17 1 17 Z " fill="#1E48D0" transform="translate(620,666)"/>
<path d="M0 0 C0.66 0 1.32 0 2 0 C2.13244231 26.46694842 2.26288766 52.93390608 2.39115143 79.40087509 C2.45079159 91.69856976 2.5110218 103.99626095 2.57275391 116.29394531 C3.04696033 210.8963016 3.04696033 210.8963016 3.06146812 248.97882557 C3.06247005 251.00201522 3.064431 253.02520433 3.06642151 255.04839325 C3.08630881 280.03968712 2.65321986 305.01781511 2 330 C1.34 330 0.68 330 0 330 C0 221.1 0 112.2 0 0 Z " fill="#0B2575" transform="translate(570,246)"/>
<path d="M0 0 C2.80096485 0.39311787 5.03140126 0.48367526 7.8125 0.375 C13.33769217 0.27957354 18.33132073 1.85731193 23.5625 3.5 C23.03400428 8.04199942 23.03400428 8.04199942 20.92578125 10.08984375 C19.91064453 10.75693359 19.91064453 10.75693359 18.875 11.4375 C15.99214021 13.38469477 14.05671023 15.09123615 12 17.875 C9.36770875 20.64621773 6.79421584 20.96054987 3.03735352 21.15283203 C-5.52986102 21.29861327 -5.52986102 21.29861327 -9.0390625 18.2109375 C-9.83054687 17.31632813 -10.62203125 16.42171875 -11.4375 15.5 C-14.31611824 13.41387585 -17.24988328 11.43757787 -20.20703125 9.46484375 C-20.94308594 8.81644531 -21.67914062 8.16804687 -22.4375 7.5 C-22.4375 6.18 -22.4375 4.86 -22.4375 3.5 C-14.37621729 0.18064829 -8.68808534 -1.2637215 0 0 Z " fill="#2654DE" transform="translate(621.4375,818.5)"/>
<path d="M0 0 C-0.66 3.3 -1.32 6.6 -2 10 C-0.576875 10.268125 0.84625 10.53625 2.3125 10.8125 C5.80725447 11.470932 7.77881058 12.14623883 10 15 C10 15.66 10 16.32 10 17 C11.32 17 12.64 17 14 17 C14.33 16.01 14.66 15.02 15 14 C15.99 14 16.98 14 18 14 C18.28875 13.195625 18.5775 12.39125 18.875 11.5625 C20 9 20 9 22 8 C22.33 8.99 22.66 9.98 23 11 C23.99 10.34 24.98 9.68 26 9 C26.16666667 6 26.16666667 6 26 3 C26.33 2.34 26.66 1.68 27 1 C28.875 1.3125 28.875 1.3125 31 2 C33.34168764 5.51253146 33.49623677 6.86469356 33 11 C31.03449378 14.27584369 29.94570593 15.72058689 26.25 16.8125 C25.5075 16.874375 24.765 16.93625 24 17 C23.505 19.475 23.505 19.475 23 22 C22.319375 22.12375 21.63875 22.2475 20.9375 22.375 C17.86778472 22.94907943 17.86778472 22.94907943 14.5625 24.3125 C11 25 11 25 7.75 23.3125 C5 21 5 21 3.5625 19.375 C1.88172605 17.69080219 1.88172605 17.69080219 -1.5 17.0625 C-5 16 -5 16 -6.875 14.25 C-8.28499351 11.43001298 -8.8032502 9.14799676 -9 6 C-7.40888325 1.22664976 -5.03299137 0 0 0 Z " fill="#1A45D4" transform="translate(610,791)"/>
<path d="M0 0 C3.82329586 0.5166616 5.37334885 1.25914662 8 4 C12.18413255 5.58708476 16.50104895 5.4428719 20.75 4.1875 C23.29624313 3.07232193 23.29624313 3.07232193 25 0 C26.32 0.33 27.64 0.66 29 1 C29.5501264 4.74085952 29.01848345 5.97227483 26.875 9.1875 C24.29513689 12.06304943 21.78527103 13.11970441 18 14 C18.33 14.33 18.66 14.66 19 15 C19.1875 17.4375 19.1875 17.4375 19 20 C17 22 17 22 14 22.25 C11 22 11 22 9 20 C8.8125 17.4375 8.8125 17.4375 9 15 C9.33 14.67 9.66 14.34 10 14 C9.44570313 13.74605469 8.89140625 13.49210938 8.3203125 13.23046875 C7.59585938 12.88628906 6.87140625 12.54210937 6.125 12.1875 C5.40570312 11.85105469 4.68640625 11.51460937 3.9453125 11.16796875 C2 10 2 10 0 7 C-0.07905064 4.66800612 -0.08798769 2.33167378 0 0 Z " fill="#1B43C8" transform="translate(608,718)"/>
<path d="M0 0 C45.21 0 90.42 0 137 0 C137.33 0.99 137.66 1.98 138 3 C133.0778687 5.63365987 128.42096702 7.64475824 123 9 C123 8.34 123 7.68 123 7 C125.64 5.68 128.28 4.36 131 3 C87.44 2.67 43.88 2.34 -1 2 C-0.67 1.34 -0.34 0.68 0 0 Z " fill="#0C3695" transform="translate(564,201)"/>
<path d="M0 0 C3.96 0.33 7.92 0.66 12 1 C12.495 2.98 12.495 2.98 13 5 C-20 5 -53 5 -87 5 C-87 4.67 -87 4.34 -87 4 C-77.57613195 3.86855749 -68.15225094 3.73809738 -58.72835255 3.60884857 C-54.35120295 3.54878599 -49.97405832 3.48840079 -45.59692383 3.42724609 C-41.36291736 3.36810351 -37.12889946 3.30985041 -32.89487267 3.25218201 C-31.28957378 3.2301673 -29.68427906 3.2078465 -28.07898903 3.18519592 C-18.71862195 3.05334992 -9.36160765 2.96771572 0 3 C0 2.01 0 1.02 0 0 Z " fill="#1545E2" transform="translate(200,838)"/>
<path d="M0 0 C7.91886714 -0.02314476 15.8377202 -0.040926 23.75661278 -0.05181217 C27.43345711 -0.05703632 31.11027834 -0.0641255 34.78710938 -0.07543945 C38.3337896 -0.08628493 41.88044757 -0.09228037 45.4271431 -0.09487724 C46.78196183 -0.09672849 48.13677931 -0.10034338 49.49158859 -0.10573006 C51.38549365 -0.11296238 53.27942098 -0.11340824 55.17333984 -0.11352539 C56.79216568 -0.11685631 56.79216568 -0.11685631 58.44369507 -0.12025452 C61 0 61 0 63 1 C63 1.66 63 2.32 63 3 C42.21 2.67 21.42 2.34 0 2 C0 1.34 0 0.68 0 0 Z " fill="#10349E" transform="translate(786,201)"/>
<path d="M0 0 C7.77238371 1.29474337 15.488552 1.51108194 23.34375 1.6875 C24.77801504 1.725812 26.21226033 1.76487061 27.64648438 1.8046875 C31.10788898 1.89919597 34.5694472 1.98372806 38.03125 2.0625 C38.03125 2.3925 38.03125 2.7225 38.03125 3.0625 C19.26678918 6.78536903 -1.16100644 3.12402315 -19.96875 1.0625 C-19.96875 0.7325 -19.96875 0.4025 -19.96875 0.0625 C-17.90839616 -0.16608498 -15.84518842 -0.36893544 -13.78125 -0.5625 C-12.63269531 -0.67851563 -11.48414063 -0.79453125 -10.30078125 -0.9140625 C-6.75467168 -1.07683474 -3.49563814 -0.59492161 0 0 Z " fill="#0A24E4" transform="translate(646.96875,939.9375)"/>
<path d="M0 0 C17.49 0 34.98 0 53 0 C53 0.33 53 0.66 53 1 C38.48 1 23.96 1 9 1 C9.33 1.99 9.66 2.98 10 4 C12.50447516 5.21869929 12.50447516 5.21869929 15 6 C15 6.66 15 7.32 15 8 C10 6.33333333 5 4.66666667 0 3 C0 2.01 0 1.02 0 0 Z " fill="#1E49CC" transform="translate(102,202)"/>
<path d="M0 0 C4.29 0 8.58 0 13 0 C12.01 0.66 11.02 1.32 10 2 C10.33 2.33 10.66 2.66 11 3 C11.1875 5.4375 11.1875 5.4375 11 8 C9 10 9 10 6 10.25 C3 10 3 10 1 8 C0.8125 5.4375 0.8125 5.4375 1 3 C1.33 2.67 1.66 2.34 2 2 C1.34 1.34 0.68 0.68 0 0 Z " fill="#1138C5" transform="translate(616,730)"/>
<path d="M0 0 C16.17 0 32.34 0 49 0 C49 1.32 49 2.64 49 4 C47.3767313 4.6708712 45.75132422 5.33657029 44.125 6 C43.22007812 6.37125 42.31515625 6.7425 41.3828125 7.125 C39 8 39 8 37 8 C37 7.34 37 6.68 37 6 C39.64 4.68 42.28 3.36 45 2 C30.15 1.67 15.3 1.34 0 1 C0 0.67 0 0.34 0 0 Z " fill="#1D4BCE" transform="translate(650,202)"/>
<path d="M0 0 C1.32 0 2.64 0 4 0 C3.65986985 5.44208234 0.29703472 8.93668198 -3 13 C-3.33 12.01 -3.66 11.02 -4 10 C-5.35917681 9.88397569 -5.35917681 9.88397569 -7.0625 12 C-8.0215625 12.99 -8.0215625 12.99 -9 14 C-9.99 13.67 -10.98 13.34 -12 13 C-11.46890625 12.48050781 -10.9378125 11.96101562 -10.390625 11.42578125 C-5.83078583 6.92716112 -5.83078583 6.92716112 -1.75 2 C-1.1725 1.34 -0.595 0.68 0 0 Z " fill="#1335CD" transform="translate(919,156)"/>
<path d="M0 0 C2 3 2 3 1.625 5.6875 C1.41875 6.450625 1.2125 7.21375 1 8 C-4.43440487 9.32841008 -4.43440487 9.32841008 -6.9375 7.875 C-8 6 -8 6 -7.8125 3.375 C-6.44574001 -0.62014458 -3.8558352 -0.38558352 0 0 Z " fill="#08219D" transform="translate(625,697)"/>
<path d="M0 0 C10.55808656 1.92710706 10.55808656 1.92710706 15 4 C15 4.33 15 4.66 15 5 C15.79664063 5.18175781 16.59328125 5.36351562 17.4140625 5.55078125 C22.97591755 6.87019942 28.04724965 8.11089563 33 11 C29.81937141 12.04597853 28.06408703 11.96378532 24.9375 10.8125 C24.15246094 10.52890625 23.36742187 10.2453125 22.55859375 9.953125 C21.71425781 9.63859375 20.86992188 9.3240625 20 9 C19.10410156 8.68546875 18.20820312 8.3709375 17.28515625 8.046875 C11.39165499 5.9638984 5.66928075 3.63166613 0 1 C0 0.67 0 0.34 0 0 Z " fill="#0E31D3" transform="translate(564,922)"/>
<path d="M0 0 C0.66 0.33 1.32 0.66 2 1 C1.67 1.99 1.34 2.98 1 4 C0.34 4 -0.32 4 -1 4 C-1.04125 4.763125 -1.0825 5.52625 -1.125 6.3125 C-2 9 -2 9 -4.4375 10.6875 C-8.88966907 12.32777281 -13.33028743 13.21556212 -18 14 C-18 13.34 -18 12.68 -18 12 C-17.04287109 11.81824219 -17.04287109 11.81824219 -16.06640625 11.6328125 C-15.24011719 11.46523438 -14.41382813 11.29765625 -13.5625 11.125 C-12.32693359 10.88136719 -12.32693359 10.88136719 -11.06640625 10.6328125 C-10.38449219 10.42398438 -9.70257812 10.21515625 -9 10 C-8.67 9.34 -8.34 8.68 -8 8 C-9.32 7.67 -10.64 7.34 -12 7 C-11.43410156 6.89042969 -10.86820313 6.78085937 -10.28515625 6.66796875 C-9.18494141 6.43013672 -9.18494141 6.43013672 -8.0625 6.1875 C-7.33160156 6.03667969 -6.60070312 5.88585937 -5.84765625 5.73046875 C-5.23792969 5.48941406 -4.62820313 5.24835937 -4 5 C-3.67 4.01 -3.34 3.02 -3 2 C-2.01 2 -1.02 2 0 2 C0 1.34 0 0.68 0 0 Z " fill="#0829B2" transform="translate(613,763)"/>
<path d="M0 0 C3.35250701 0.57575664 4.93818629 1.59306263 7.25 4.0625 C7.77078125 4.61035156 8.2915625 5.15820312 8.828125 5.72265625 C9.21484375 6.14417969 9.6015625 6.56570312 10 7 C9 9 9 9 7 10 C7.33 11.32 7.66 12.64 8 14 C5.47106706 11.65839543 3.26645809 9.17847268 1.1875 6.4375 C0.74792969 5.85871094 0.30835938 5.27992188 -0.14453125 4.68359375 C-0.42683594 4.12800781 -0.70914063 3.57242188 -1 3 C-0.67 2.01 -0.34 1.02 0 0 Z " fill="#0E2FC9" transform="translate(824,156)"/>
<path d="M0 0 C1 3 1 3 0.38256836 4.75830078 C0.03846924 5.39751465 -0.30562988 6.03672852 -0.66015625 6.6953125 C-1.22875366 7.7637439 -1.22875366 7.7637439 -1.80883789 8.85375977 C-2.22254639 9.60326904 -2.63625488 10.35277832 -3.0625 11.125 C-3.4742749 11.88675537 -3.8860498 12.64851074 -4.31030273 13.43334961 C-7.25622549 18.81917876 -10.38865103 24.02908435 -14 29 C-14.33 27.68 -14.66 26.36 -15 25 C-14.34 25 -13.68 25 -13 25 C-12.7525 23.88625 -12.505 22.7725 -12.25 21.625 C-11 18 -11 18 -8.875 16.5625 C-8.25625 16.376875 -7.6375 16.19125 -7 16 C-7 14.68 -7 13.36 -7 12 C-6.34 12 -5.68 12 -5 12 C-5 10.68 -5 9.36 -5 8 C-4.34 8 -3.68 8 -3 8 C-2.87625 7.236875 -2.7525 6.47375 -2.625 5.6875 C-2 3 -2 3 0 0 Z " fill="#0F36AC" transform="translate(771,782)"/>
<path d="M0 0 C1.62228516 -0.01836914 1.62228516 -0.01836914 3.27734375 -0.03710938 C9.04182296 -0.04766703 13.94029921 0.21761562 19.375 2.1875 C19.375 2.5175 19.375 2.8475 19.375 3.1875 C14.79171978 3.24552751 10.20853396 3.28110593 5.625 3.3125 C4.32304688 3.32925781 3.02109375 3.34601562 1.6796875 3.36328125 C0.42929687 3.36972656 -0.82109375 3.37617187 -2.109375 3.3828125 C-3.26147461 3.39328613 -4.41357422 3.40375977 -5.60058594 3.41455078 C-8.52392966 3.19508762 -10.16232509 2.71478122 -12.625 1.1875 C-10.12625634 -1.31124366 -3.35595756 0.00195797 0 0 Z " fill="#0C2499" transform="translate(544.625,701.8125)"/>
<path d="M0 0 C2.01822917 0.06510417 4.03645833 0.13020833 6.0546875 0.1953125 C6.3846875 1.1853125 6.7146875 2.1753125 7.0546875 3.1953125 C3.95089898 5.83353274 1.24005826 6.89896981 -2.6953125 7.8828125 C-4.17257812 8.25986328 -4.17257812 8.25986328 -5.6796875 8.64453125 C-6.42734375 8.82628906 -7.175 9.00804687 -7.9453125 9.1953125 C-7.6153125 8.2053125 -7.2853125 7.2153125 -6.9453125 6.1953125 C-4.87890625 5.46484375 -4.87890625 5.46484375 -2.3828125 5.0078125 C-1.55652344 4.84925781 -0.73023438 4.69070313 0.12109375 4.52734375 C0.75917969 4.41777344 1.39726563 4.30820312 2.0546875 4.1953125 C2.0546875 3.5353125 2.0546875 2.8753125 2.0546875 2.1953125 C0.0746875 2.1953125 -1.9053125 2.1953125 -3.9453125 2.1953125 C-1.9453125 0.1953125 -1.9453125 0.1953125 0 0 Z " fill="#0628B5" transform="translate(675.9453125,721.8046875)"/>
<path d="M0 0 C0.66 0 1.32 0 2 0 C0.34136495 4.32504836 -2.871041 7.09418825 -6.125 10.25 C-6.68832031 10.80429687 -7.25164063 11.35859375 -7.83203125 11.9296875 C-9.21686028 13.29104485 -10.60783204 14.64614859 -12 16 C-12.99 15.67 -13.98 15.34 -15 15 C-12.88094537 12.82722286 -10.75527122 10.66173092 -8.625 8.5 C-8.02171875 7.87996094 -7.4184375 7.25992188 -6.796875 6.62109375 C-6.21679688 6.03457031 -5.63671875 5.44804688 -5.0390625 4.84375 C-4.50490723 4.29912109 -3.97075195 3.75449219 -3.42041016 3.19335938 C-2 2 -2 2 0 2 C0 1.34 0 0.68 0 0 Z " fill="#193FDB" transform="translate(524,605)"/>
<path d="M0 0 C3.79403384 1.26467795 4.06684293 2.61697513 6 6 C8.06467856 8.40879165 8.88994659 8.96331553 12 10 C12 10.66 12 11.32 12 12 C15.3 12.99 18.6 13.98 22 15 C21.67 15.66 21.34 16.32 21 17 C12.9192666 15.04498385 7.50177887 11.26100355 2 5 C0.71484375 2.2109375 0.71484375 2.2109375 0 0 Z " fill="#0E35EE" transform="translate(550,760)"/>
<path d="M0 0 C1.79379098 0.44994757 3.58498928 0.91024143 5.375 1.375 C6.37273438 1.63023437 7.37046875 1.88546875 8.3984375 2.1484375 C11 3 11 3 13 5 C10.03 5 7.06 5 4 5 C4.33 7.97 4.66 10.94 5 14 C3 13 3 13 1.9375 10.9375 C0.76768577 7.27208208 0.38918989 3.82703395 0 0 Z " fill="#0E36C7" transform="translate(545,745)"/>
<path d="M0 0 C0 0.33 0 0.66 0 1 C-9.0719352 1.09471858 -17.98185679 1.14516104 -27 0 C-27 -0.33 -27 -0.66 -27 -1 C-17.62509392 -2.04009453 -9.25454457 -1.86013271 0 0 Z " fill="#153DDA" transform="translate(654,941)"/>
<path d="M0 0 C2.97 0.33 5.94 0.66 9 1 C9.33 1.99 9.66 2.98 10 4 C12.50447516 5.21869929 12.50447516 5.21869929 15 6 C15 6.66 15 7.32 15 8 C10 6.33333333 5 4.66666667 0 3 C0 2.01 0 1.02 0 0 Z " fill="#0F3CED" transform="translate(102,202)"/>
<path d="M0 0 C2.64 0.33 5.28 0.66 8 1 C8 2.32 8 3.64 8 5 C5.03 5 2.06 5 -1 5 C-1.33 4.34 -1.66 3.68 -2 3 C-1.01 3 -0.02 3 1 3 C0.67 2.01 0.34 1.02 0 0 Z " fill="#0429D0" transform="translate(719,705)"/>
<path d="M0 0 C-0.15234375 1.859375 -0.15234375 1.859375 -1 4 C-3.50390625 5.265625 -3.50390625 5.265625 -6.5625 6.25 C-7.57441406 6.58515625 -8.58632813 6.9203125 -9.62890625 7.265625 C-10.41136719 7.50796875 -11.19382812 7.7503125 -12 8 C-12 7.34 -12 6.68 -12 6 C-11.34 6 -10.68 6 -10 6 C-9.6596875 4.7934375 -9.6596875 4.7934375 -9.3125 3.5625 C-8 1 -8 1 -5.5625 0.1875 C-3 0 -3 0 0 0 Z " fill="#0F47E6" transform="translate(955,202)"/>
<path d="M0 0 C0.33 0 0.66 0 1 0 C1.53570005 2.35163241 2.05367829 4.70503348 2.5625 7.0625 C2.71396484 7.71927734 2.86542969 8.37605469 3.02148438 9.05273438 C4.00733147 13.70684974 3.91737315 17.32807978 3 22 C2.67 22 2.34 22 2 22 C-0.01670288 14.56340812 -0.2137731 7.68395543 0 0 Z " fill="#061F9F" transform="translate(872,181)"/>
<path d="M0 0 C-0.33 1.32 -0.66 2.64 -1 4 C-1.33 3.34 -1.66 2.68 -2 2 C-4.1173558 3.1389339 -4.1173558 3.1389339 -6 5 C-6.26725096 7.52653421 -6.26725096 7.52653421 -5.75 10.1875 C-5.62109375 11.08855469 -5.4921875 11.98960937 -5.359375 12.91796875 C-5.24078125 13.60503906 -5.1221875 14.29210937 -5 15 C-8.10605509 12.17859686 -8.74025696 10.24246972 -9 6 C-7.40888325 1.22664976 -5.03299137 0 0 0 Z " fill="#082AE0" transform="translate(610,791)"/>
<path d="M0 0 C0 3 0 3 -1.828125 5.2265625 C-3.02695312 6.41378906 -3.02695312 6.41378906 -4.25 7.625 C-5.03890625 8.42164063 -5.8278125 9.21828125 -6.640625 10.0390625 C-8.89945122 11.91643131 -10.13817731 12.61929882 -13 13 C-9.0580583 8.11950075 -4.88049925 3.9419417 0 0 Z " fill="#173BDD" transform="translate(655,716)"/>
<path d="M0 0 C0.99 0.33 1.98 0.66 3 1 C1.04653795 2.67268922 -0.91229814 4.33821581 -2.875 6 C-3.70837891 6.71542969 -3.70837891 6.71542969 -4.55859375 7.4453125 C-8.7734375 11 -8.7734375 11 -11 11 C-11 10.34 -11 9.68 -11 9 C-10.34 9 -9.68 9 -9 9 C-8.34 7.68 -7.68 6.36 -7 5 C-6.34 5 -5.68 5 -5 5 C-5 4.34 -5 3.68 -5 3 C-4.01 3 -3.02 3 -2 3 C-2 2.34 -2 1.68 -2 1 C-1.34 0.67 -0.68 0.34 0 0 Z " fill="#0E39C6" transform="translate(896,196)"/>
<path d="M0 0 C2.64 0.33 5.28 0.66 8 1 C8.33 2.32 8.66 3.64 9 5 C6.36 5 3.72 5 1 5 C0.67 3.35 0.34 1.7 0 0 Z " fill="#033ABB" transform="translate(204,838)"/>
<path d="M0 0 C0 0.66 0 1.32 0 2 C-0.66 2.66 -1.32 3.32 -2 4 C-2 4.33 -2 4.66 -2 5 C-4.64 5 -7.28 5 -10 5 C-9.67 3.68 -9.34 2.36 -9 1 C-2.25 0 -2.25 0 0 0 Z " fill="#0234C4" transform="translate(102,838)"/>
<path d="M0 0 C0.91007813 0.00902344 1.82015625 0.01804687 2.7578125 0.02734375 C3.80582031 0.04474609 3.80582031 0.04474609 4.875 0.0625 C2.11237632 2.82512368 -0.09562088 2.68061333 -3.9375 3.1875 C-5.16082031 3.35507812 -6.38414062 3.52265625 -7.64453125 3.6953125 C-10.51382808 3.99802171 -13.24563778 4.13928299 -16.125 4.0625 C-16.125 3.4025 -16.125 2.7425 -16.125 2.0625 C-15.18527344 1.97162109 -15.18527344 1.97162109 -14.2265625 1.87890625 C-13.00066406 1.75322266 -13.00066406 1.75322266 -11.75 1.625 C-10.93789063 1.54378906 -10.12578125 1.46257813 -9.2890625 1.37890625 C-5.90893735 0.88470023 -3.57039515 -0.0457743 0 0 Z " fill="#0A32CA" transform="translate(719.125,936.9375)"/>
<path d="M0 0 C-0.28241641 1.46015291 -0.57626614 2.91809793 -0.875 4.375 C-1.03742187 5.18710937 -1.19984375 5.99921875 -1.3671875 6.8359375 C-2 9 -2 9 -4 11 C-3.67 8.03 -3.34 5.06 -3 2 C-3.99 2.66 -4.98 3.32 -6 4 C-6.99 3.34 -7.98 2.68 -9 2 C-3.375 -1.125 -3.375 -1.125 0 0 Z " fill="#0A2ABA" transform="translate(699,746)"/>
<path d="M0 0 C6.625 -0.25 6.625 -0.25 10 2 C8.02 2 6.04 2 4 2 C4 2.99 4 3.98 4 5 C4.99 5.33 5.98 5.66 7 6 C3.62537285 5.45276317 1.91765 4.9451 -1 3 C-0.67 2.01 -0.34 1.02 0 0 Z " fill="#0422BA" transform="translate(562,722)"/>
<path d="M0 0 C1.67542976 0.28604898 3.34385343 0.61781233 5 1 C5 2.65 5 4.3 5 6 C3.02 6 1.04 6 -1 6 C-1.042721 4.33388095 -1.04063832 2.66617115 -1 1 C-0.67 0.67 -0.34 0.34 0 0 Z " fill="#1C48CE" transform="translate(620,698)"/>
<path d="M0 0 C5.96564796 0.50771472 10.63809899 2.38592128 16 5 C12.63287346 6.15049882 10.74731054 5.84587766 7.4375 4.625 C6.67308594 4.34914063 5.90867187 4.07328125 5.12109375 3.7890625 C4.42113281 3.52867187 3.72117187 3.26828125 3 3 C2.01 2.67 1.02 2.34 0 2 C0 1.34 0 0.68 0 0 Z " fill="#113CF2" transform="translate(581,928)"/>
<path d="M0 0 C3.26954202 0.56371414 4.82575883 1.49962266 7 4 C6.38125 4.103125 5.7625 4.20625 5.125 4.3125 C2.63473516 4.87525373 2.63473516 4.87525373 1 8 C-0.42944945 5.64561267 -1.08661261 4.51967567 -0.625 1.75 C-0.41875 1.1725 -0.2125 0.595 0 0 Z " fill="#0C2BE5" transform="translate(528,724)"/>
<path d="M0 0 C6.45512034 -0.56131481 11.15439723 1.36536213 17 4 C16.67 4.66 16.34 5.32 16 6 C15.26394531 5.72285156 14.52789063 5.44570313 13.76953125 5.16015625 C12.79371094 4.79792969 11.81789063 4.43570313 10.8125 4.0625 C9.36810547 3.52302734 9.36810547 3.52302734 7.89453125 2.97265625 C5.2631722 2.08843438 2.73105092 1.47431414 0 1 C0 0.67 0 0.34 0 0 Z " fill="#1239F1" transform="translate(655,616)"/>
<path d="M0 0 C4.29 0 8.58 0 13 0 C12.01 0.66 11.02 1.32 10 2 C10.33 2.33 10.66 2.66 11 3 C11.04063832 4.66617115 11.042721 6.33388095 11 8 C10.76539063 7.37609375 10.53078125 6.7521875 10.2890625 6.109375 C8.63176925 3.39744059 7.3858401 3.11024003 4.375 2.25 C3.55773437 2.00765625 2.74046875 1.7653125 1.8984375 1.515625 C1.27195312 1.34546875 0.64546875 1.1753125 0 1 C0 0.67 0 0.34 0 0 Z " fill="#072082" transform="translate(616,730)"/>
<path d="M0 0 C2.475 0.495 2.475 0.495 5 1 C5.33 1.99 5.66 2.98 6 4 C4.68 4 3.36 4 2 4 C2.33 5.32 2.66 6.64 3 8 C2.01 8.495 2.01 8.495 1 9 C-0.4783226 6.04335481 -0.06032783 3.25770263 0 0 Z " fill="#0C2FD2" transform="translate(608,718)"/>
<path d="M0 0 C-1.32 1.32 -2.64 2.64 -4 4 C-2.35 4 -0.7 4 1 4 C1 4.33 1 4.66 1 5 C-1.97 5 -4.94 5 -8 5 C-8 3.68 -8 2.36 -8 1 C-5.07175348 0.02391783 -3.04386724 -0.08226668 0 0 Z " fill="#0223C3" transform="translate(525,705)"/>
<path d="M0 0 C0.33 0.99 0.66 1.98 1 3 C-1.64 5.64 -4.28 8.28 -7 11 C-7.99 10.67 -8.98 10.34 -10 10 C-6.66666667 6.66666667 -3.33333333 3.33333333 0 0 Z " fill="#1837D8" transform="translate(772,858)"/>
<path d="M0 0 C1.32 0 2.64 0 4 0 C3 3 3 3 0.78515625 4.16796875 C-0.11332031 4.50441406 -1.01179687 4.84085938 -1.9375 5.1875 C-2.83339844 5.53167969 -3.72929688 5.87585938 -4.65234375 6.23046875 C-7 7 -7 7 -9 7 C-9 6.34 -9 5.68 -9 5 C-8.43410156 4.72285156 -7.86820313 4.44570312 -7.28515625 4.16015625 C-6.55167969 3.79792969 -5.81820312 3.43570313 -5.0625 3.0625 C-3.96615234 2.52302734 -3.96615234 2.52302734 -2.84765625 1.97265625 C-1.03750973 1.13628173 -1.03750973 1.13628173 0 0 Z " fill="#0940E4" transform="translate(696,203)"/>
<path d="M0 0 C1.79158489 -0.02696365 3.58328473 -0.04637917 5.375 -0.0625 C6.37273438 -0.07410156 7.37046875 -0.08570313 8.3984375 -0.09765625 C11 0 11 0 13 1 C13 1.66 13 2.32 13 3 C11.20759337 2.88610125 9.41605165 2.75852313 7.625 2.625 C6.12839844 2.52058594 6.12839844 2.52058594 4.6015625 2.4140625 C2 2 2 2 0 0 Z " fill="#0D32E2" transform="translate(612,937)"/>
<path d="M0 0 C0.66 0 1.32 0 2 0 C0.35821735 4.77609498 -2.26546702 8.79382904 -5 13 C-5.33 11.68 -5.66 10.36 -6 9 C-5.34 9 -4.68 9 -4 9 C-3.71125 7.88625 -3.4225 6.7725 -3.125 5.625 C-2 2 -2 2 0 0 Z " fill="#0F39C2" transform="translate(762,798)"/>
<path d="M0 0 C2.97 0.495 2.97 0.495 6 1 C6 1.66 6 2.32 6 3 C10.29 3 14.58 3 19 3 C19 3.33 19 3.66 19 4 C16.5821288 4.10826289 14.16912444 4.18739789 11.75 4.25 C10.72712891 4.30027344 10.72712891 4.30027344 9.68359375 4.3515625 C6.07818187 4.4215705 4.35931188 4.29151719 1.515625 1.984375 C1.01546875 1.32953125 0.5153125 0.6746875 0 0 Z " fill="#1230DE" transform="translate(611,835)"/>
<path d="M0 0 C-1.77945087 4.04420651 -4.39529673 7.46078487 -7 11 C-7.33 9.68 -7.66 8.36 -8 7 C-7.01 6.67 -6.02 6.34 -5 6 C-4.87625 5.195625 -4.7525 4.39125 -4.625 3.5625 C-4.41875 2.716875 -4.2125 1.87125 -4 1 C-2 0 -2 0 0 0 Z " fill="#0E36C3" transform="translate(755,812)"/>
<path d="M0 0 C0.33 0 0.66 0 1 0 C0.88512252 1.58409994 0.75765492 3.16728963 0.625 4.75 C0.52058594 6.07257812 0.52058594 6.07257812 0.4140625 7.421875 C0.00149945 9.99066382 -0.71160957 11.75841015 -2 14 C-2.33 14 -2.66 14 -3 14 C-2.48594831 9.03083364 -1.76615118 4.70973649 0 0 Z " fill="#1B48DE" transform="translate(815,778)"/>
<path d="M0 0 C1.32 0 2.64 0 4 0 C4.33 1.32 4.66 2.64 5 4 C4.401875 4.144375 3.80375 4.28875 3.1875 4.4375 C1.43849596 4.8872439 -0.28677023 5.42892341 -2 6 C-1.34 4.02 -0.68 2.04 0 0 Z " fill="#0D39E8" transform="translate(620,666)"/>
<path d="M0 0 C2.31 0.33 4.62 0.66 7 1 C7 1.66 7 2.32 7 3 C9.475 3.99 9.475 3.99 12 5 C11.01 5.495 11.01 5.495 10 6 C7.6171875 5.00390625 7.6171875 5.00390625 4.875 3.5625 C3.96492187 3.08941406 3.05484375 2.61632812 2.1171875 2.12890625 C1.41851563 1.75636719 0.71984375 1.38382813 0 1 C0 0.67 0 0.34 0 0 Z " fill="#113BF2" transform="translate(552,916)"/>
<path d="M0 0 C-1.23789629 3.71368887 -2.85224877 4.77354181 -6 7 C-6.66 7 -7.32 7 -8 7 C-8 6.01 -8 5.02 -8 4 C-7.01 4 -6.02 4 -5 4 C-4.67 3.01 -4.34 2.02 -4 1 C-2 0 -2 0 0 0 Z " fill="#0F36D9" transform="translate(710,737)"/>
<path d="M0 0 C0.66 0.33 1.32 0.66 2 1 C0.02 3.31 -1.96 5.62 -4 8 C-4.66 7.67 -5.32 7.34 -6 7 C-5.8125 5.1875 -5.8125 5.1875 -5 3 C-2.5625 1.1875 -2.5625 1.1875 0 0 Z " fill="#1738D4" transform="translate(781,132)"/>
<path d="M0 0 C0.66 0 1.32 0 2 0 C0.68775452 3.93673644 -0.91910327 6.22719294 -4 9 C-3.4739075 5.21213403 -2.61896089 2.82847776 0 0 Z " fill="#0F3CCA" transform="translate(518,665)"/>
<path d="M0 0 C0.33 0 0.66 0 1 0 C1.3125 3.25 1.3125 3.25 1 7 C-1.5 9.4375 -1.5 9.4375 -4 11 C-3.71125 10.29875 -3.4225 9.5975 -3.125 8.875 C-1.97866412 5.94547497 -0.97374346 2.99078347 0 0 Z " fill="#1A43F9" transform="translate(140,804)"/>
<path d="M0 0 C0.33 0.66 0.66 1.32 1 2 C0.00390625 4.3828125 0.00390625 4.3828125 -1.4375 7.125 C-1.91058594 8.03507813 -2.38367188 8.94515625 -2.87109375 9.8828125 C-3.24363281 10.58148437 -3.61617188 11.28015625 -4 12 C-4.33 12 -4.66 12 -5 12 C-5.58305225 8.15185513 -4.7002883 6.23691365 -2.5 3.1875 C-1.67780256 2.11635945 -0.84795951 1.0508641 0 0 Z " fill="#0C33C4" transform="translate(509,680)"/>
<path d="M0 0 C1.32 0 2.64 0 4 0 C3.67 1.65 3.34 3.3 3 5 C2.67 4.01 2.34 3.02 2 2 C-0.475 3.485 -0.475 3.485 -3 5 C-1.125 1.125 -1.125 1.125 0 0 Z " fill="#0213C7" transform="translate(919,156)"/>
<path d="M0 0 C-5.14285714 4.42857143 -5.14285714 4.42857143 -9 5 C-9 4.34 -9 3.68 -9 3 C-6.04341306 0.15291628 -4.05047276 -0.3375394 0 0 Z " fill="#0D46E6" transform="translate(797,910)"/>
<path d="M0 0 C0.99 0.33 1.98 0.66 3 1 C2.01 2.485 2.01 2.485 1 4 C-1.4375 3.625 -1.4375 3.625 -4 3 C-4.33 2.34 -4.66 1.68 -5 1 C-3.35 1 -1.7 1 0 1 C0 0.67 0 0.34 0 0 Z " fill="#0826C3" transform="translate(728,839)"/>
<path d="M0 0 C1.98 0 3.96 0 6 0 C6 0.99 6 1.98 6 3 C4.02 3 2.04 3 0 3 C0 2.01 0 1.02 0 0 Z " fill="#103BDA" transform="translate(644,785)"/>
<path d="M0 0 C1.485 0.99 1.485 0.99 3 2 C3.6875 5.625 3.6875 5.625 4 9 C1.18167487 7.59083743 0.97406539 5.92219617 0 3 C0 2.01 0 1.02 0 0 Z " fill="#1233E8" transform="translate(546,750)"/>
<path d="M0 0 C0.99 0.33 1.98 0.66 3 1 C1.625 3 1.625 3 0 5 C-0.66 5 -1.32 5 -2 5 C-2.33 5.66 -2.66 6.32 -3 7 C-2.25 2.25 -2.25 2.25 0 0 Z " fill="#123FD4" transform="translate(527,654)"/>
<path d="M0 0 C2.04219706 1.69179328 2.91793306 2.63727666 3.51171875 5.26171875 C3.56972656 6.06222656 3.62773437 6.86273438 3.6875 7.6875 C3.75324219 8.49574219 3.81898438 9.30398438 3.88671875 10.13671875 C3.92410156 10.75160156 3.96148437 11.36648438 4 12 C0 4.08403361 0 4.08403361 0 0 Z " fill="#1437EB" transform="translate(228,477)"/>
<path d="M0 0 C0.99 0.33 1.98 0.66 3 1 C0.64031256 3.09749995 -0.54616994 3.96905704 -3.75 4.1875 C-4.86375 4.0946875 -4.86375 4.0946875 -6 4 C-4.03617993 2.49440461 -2.21736634 1.10868317 0 0 Z " fill="#0831D0" transform="translate(876,212)"/>
<path d="M0 0 C0.66 0.33 1.32 0.66 2 1 C-0.475 4.465 -0.475 4.465 -3 8 C-3.33 7.01 -3.66 6.02 -4 5 C-2.79716872 3.14107893 -1.56389308 1.56389308 0 0 Z " fill="#0C30D6" transform="translate(919,161)"/>
</svg>
